# xmcd
#
# Track frame offsets:
#	150
#	13784
#	27718
#	41563
#	54766
#	69139
#	82437
#	96175
#	100617
#	105627
#	115247
#	128078
#
# Disc length: 1794 seconds
#
# Revision: 1
# Processed by: cddbd v1.5.2PL0 Copyright (c) Steve Scherf et al.
# Submitted via: audiograbber 1.83.01
#
DISCID=9807000c
DTITLE=Brotherhood of Man - Save Your Kisses For Me
DYEAR=2005
DGENRE=Country
TTITLE0=Save Your Kisses For Me
TTITLE1=My Sweet Rosalie - Oh Boy
TTITLE2=Angelo
TTITLE3=Figaro
TTITLE4=Beautiful Lover
TTITLE5=Tie A Yellow Ribbon
TTITLE6=I have got the music in me
TTITLE7=Ernie (The Fastest Milkman In The West)
TTITLE8=Puppy Lover
TTITLE9=Daydreamer
TTITLE10=United We Stand
TTITLE11=Do Not Give Up On Us
EXTD=
EXTT0=
EXTT1=
EXTT2=
EXTT3=
EXTT4=
EXTT5=
EXTT6=
EXTT7=
EXTT8=
EXTT9=
EXTT10=
EXTT11=
PLAYORDER=
